<svg width="91" height="59" viewBox="0 0 91 59" fill="none" xmlns="http://www.w3.org/2000/svg">
<path d="M0 0V58.1726H90.9658V0H0ZM6.49756 6.49756H84.4682V51.6751H6.49756V6.49756ZM32.4878 12.9951C23.5536 12.9951 16.2439 20.3049 16.2439 29.239C16.2439 38.1731 23.5536 45.4829 32.4878 45.4829C36.1908 45.4641 39.7749 44.1738 42.6402 41.828L38.5792 36.7502C36.8671 38.1342 34.7847 38.9853 32.4878 38.9853C27.0688 38.9853 22.7414 34.658 22.7414 29.239C22.7414 23.82 27.0688 19.4927 32.4878 19.4927C34.7847 19.4927 36.8671 20.3438 38.5792 21.7278L42.6402 16.65C39.7749 14.3042 36.1908 13.0139 32.4878 12.9951ZM64.9756 12.9951C56.0414 12.9951 48.7317 20.3049 48.7317 29.239C48.7317 38.1731 56.0414 45.4829 64.9756 45.4829C68.6786 45.4641 72.2627 44.1738 75.128 41.828L71.067 36.7502C69.3549 38.1342 67.2724 38.9853 64.9756 38.9853C59.5566 38.9853 55.2292 34.658 55.2292 29.239C55.2292 23.82 59.5566 19.4927 64.9756 19.4927C67.2724 19.4927 69.3549 20.3438 71.067 21.7278L75.128 16.65C72.2627 14.3042 68.6786 13.0139 64.9756 12.9951Z" fill="white"/>
</svg>
