<svg width="214" height="186" viewBox="0 0 214 186" fill="none" xmlns="http://www.w3.org/2000/svg">
<path d="M196.167 0.266602H17.8333C13.1054 0.272265 8.57269 2.15295 5.22952 5.49612C1.88635 8.83929 0.00566336 13.372 0 18.0999L0 146.5C0.00566336 151.228 1.88635 155.761 5.22952 159.104C8.57269 162.447 13.1054 164.328 17.8333 164.333H124.833V182.167C124.833 182.872 125.043 183.561 125.435 184.148C125.827 184.734 126.384 185.191 127.035 185.461C127.687 185.731 128.404 185.802 129.096 185.664C129.787 185.526 130.423 185.187 130.922 184.688L142.667 172.943L154.412 184.688C154.911 185.187 155.546 185.526 156.238 185.664C156.929 185.802 157.647 185.731 158.298 185.461C158.95 185.191 159.507 184.734 159.899 184.148C160.291 183.561 160.5 182.872 160.5 182.167V164.333H196.167C200.895 164.328 205.427 162.447 208.77 159.104C212.114 155.761 213.994 151.228 214 146.5V18.0999C213.994 13.372 212.114 8.83929 208.77 5.49612C205.427 2.15295 200.895 0.272265 196.167 0.266602ZM115.239 70.0484C114.967 69.9231 114.729 69.7352 114.544 69.5001C114.358 69.265 114.231 68.9894 114.173 68.6959C114.114 68.4023 114.126 68.0991 114.207 67.811C114.289 67.5229 114.437 67.2581 114.64 67.0382C116.179 65.3653 117.033 63.175 117.033 60.9017C117.033 58.6284 116.179 56.4382 114.64 54.7653C114.436 54.5451 114.288 54.2798 114.206 53.9911C114.125 53.7025 114.113 53.3986 114.172 53.1045C114.231 52.8104 114.358 52.5344 114.545 52.2992C114.731 52.064 114.97 51.8763 115.243 51.7514C117.303 50.7924 118.929 49.0949 119.798 46.9946C120.668 44.8943 120.717 42.5443 119.936 40.4094C119.832 40.1285 119.797 39.827 119.832 39.5296C119.867 39.2321 119.972 38.9472 120.138 38.6981C120.304 38.4491 120.527 38.2429 120.788 38.0965C121.05 37.95 121.342 37.8675 121.641 37.8557C123.913 37.7602 126.066 36.815 127.674 35.2071C129.282 33.5993 130.227 31.4462 130.322 29.1744C130.334 28.8747 130.417 28.5821 130.563 28.3204C130.71 28.0588 130.916 27.8357 131.166 27.6693C131.415 27.5029 131.701 27.3981 131.999 27.3634C132.297 27.3287 132.599 27.365 132.88 27.4696C135.015 28.2455 137.364 28.1937 139.463 27.3243C141.563 26.4549 143.26 24.8309 144.222 22.7723C144.346 22.5 144.533 22.2611 144.768 22.0753C145.003 21.8895 145.278 21.7621 145.572 21.7036C145.865 21.6451 146.169 21.6571 146.457 21.7388C146.745 21.8204 147.009 21.9692 147.228 22.1731C150.699 25.3652 156.038 25.3652 159.505 22.1731C159.725 21.9694 159.99 21.8207 160.278 21.7394C160.567 21.658 160.87 21.6463 161.164 21.7051C161.458 21.764 161.734 21.8917 161.969 22.0779C162.203 22.264 162.391 22.5032 162.515 22.7758C163.475 24.8353 165.172 26.4599 167.271 27.329C169.37 28.198 171.719 28.2482 173.854 27.4696C174.135 27.365 174.437 27.3287 174.734 27.3634C175.032 27.3981 175.318 27.5029 175.567 27.6693C175.817 27.8357 176.023 28.0588 176.17 28.3204C176.317 28.5821 176.399 28.8747 176.411 29.1744C176.507 31.4493 177.455 33.6048 179.067 35.2134C180.678 36.8221 182.835 37.7665 185.11 37.8593C185.409 37.8705 185.701 37.9525 185.963 38.0985C186.224 38.2445 186.447 38.4504 186.613 38.6993C186.78 38.9481 186.885 39.2328 186.92 39.5301C186.955 39.8274 186.919 40.1287 186.815 40.4094C186.034 42.5446 186.083 44.8953 186.953 46.9959C187.823 49.0965 189.45 50.7937 191.512 51.7514C191.784 51.8768 192.022 52.0647 192.208 52.2998C192.393 52.5349 192.52 52.8104 192.578 53.104C192.637 53.3975 192.625 53.7008 192.544 53.9889C192.463 54.277 192.314 54.5418 192.111 54.7617C190.572 56.4346 189.718 58.6249 189.718 60.8982C189.718 63.1714 190.572 65.3617 192.111 67.0346C192.315 67.2547 192.464 67.5201 192.545 67.8087C192.626 68.0974 192.638 68.4013 192.579 68.6954C192.52 68.9895 192.393 69.2654 192.207 69.5006C192.021 69.7358 191.781 69.9236 191.509 70.0484C189.448 71.0074 187.822 72.705 186.953 74.8053C186.084 76.9056 186.034 79.2556 186.815 81.3904C186.919 81.6714 186.955 81.9729 186.919 82.2703C186.884 82.5677 186.779 82.8526 186.613 83.1017C186.447 83.3508 186.224 83.557 185.963 83.7034C185.701 83.8498 185.409 83.9323 185.11 83.9442C182.832 84.0356 180.672 84.9814 179.06 86.5934C177.448 88.2054 176.502 90.3654 176.411 92.6433C176.399 92.943 176.317 93.2356 176.17 93.4973C176.023 93.7589 175.817 93.982 175.567 94.1484C175.318 94.3148 175.032 94.4196 174.734 94.4543C174.437 94.4891 174.135 94.4527 173.854 94.3481C171.718 93.5713 169.369 93.6227 167.27 94.4922C165.17 95.3617 163.473 96.9862 162.512 99.0454C162.392 99.3201 162.207 99.5612 161.972 99.7477C161.738 99.9343 161.461 100.061 161.167 100.115C160.873 100.177 160.568 100.167 160.279 100.085C159.989 100.004 159.724 99.854 159.505 99.6482C157.831 98.1095 155.64 97.2556 153.367 97.2556C151.093 97.2556 148.902 98.1095 147.228 99.6482C147.009 99.8537 146.744 100.003 146.454 100.085C146.165 100.166 145.861 100.177 145.566 100.115C145.271 100.06 144.994 99.9343 144.759 99.7478C144.524 99.5613 144.339 99.3202 144.218 99.0454C143.259 96.9855 141.562 95.3602 139.463 94.4911C137.363 93.622 135.014 93.5723 132.88 94.3517C132.599 94.4562 132.297 94.4926 131.999 94.4579C131.701 94.4232 131.415 94.3183 131.166 94.152C130.916 93.9856 130.71 93.7625 130.563 93.5008C130.417 93.2392 130.334 92.9465 130.322 92.6468C130.231 90.3682 129.286 88.2075 127.674 86.5943C126.062 84.9811 123.902 84.0338 121.623 83.9406C121.324 83.9294 121.032 83.8474 120.771 83.7013C120.509 83.5553 120.286 83.3495 120.12 83.1006C119.954 82.8518 119.849 82.567 119.814 82.2698C119.779 81.9725 119.815 81.6712 119.918 81.3904C120.701 79.2574 120.654 76.9084 119.788 74.8081C118.921 72.7079 117.298 71.0093 115.239 70.0484ZM154.415 136.841L153.367 137.89V104.363C153.845 104.363 154.305 104.542 154.654 104.866C155.696 105.845 156.958 106.558 158.334 106.947C159.709 107.335 161.158 107.388 162.558 107.099C163.957 106.826 165.269 106.222 166.387 105.337C167.504 104.452 168.392 103.312 168.978 102.013C169.179 101.579 169.537 101.237 169.979 101.055C170.421 100.872 170.915 100.863 171.364 101.029C172.448 101.414 173.597 101.585 174.749 101.539V137.89L166.57 129.712C165.902 129.043 164.995 128.667 164.049 128.667C163.103 128.667 162.196 129.043 161.527 129.712L154.415 136.841ZM153.367 173.557L145.188 165.378C144.519 164.71 143.612 164.334 142.667 164.334C141.721 164.334 140.814 164.71 140.145 165.378L131.967 173.557V101.531C133.119 101.578 134.267 101.407 135.351 101.021C135.799 100.855 136.293 100.864 136.735 101.045C137.176 101.227 137.533 101.569 137.734 102.002C138.321 103.305 139.213 104.447 140.334 105.332C141.455 106.218 142.772 106.822 144.175 107.092C144.853 107.227 145.541 107.284 146.233 107.267V146.5C146.233 147.205 146.443 147.895 146.835 148.481C147.227 149.067 147.784 149.525 148.435 149.794C149.087 150.064 149.804 150.135 150.496 149.997C151.187 149.86 151.823 149.52 152.322 149.022L153.367 147.977V173.557ZM206.867 146.5C206.867 149.338 205.739 152.059 203.733 154.066C201.726 156.073 199.004 157.2 196.167 157.2H160.5V140.843L164.067 137.277L175.812 149.022C176.311 149.52 176.946 149.86 177.638 149.997C178.329 150.135 179.047 150.064 179.698 149.794C180.35 149.525 180.907 149.067 181.299 148.481C181.691 147.895 181.9 147.205 181.9 146.5V97.6616C182.899 96.2634 183.466 94.6085 183.537 92.8929C183.558 92.4157 183.757 91.9637 184.095 91.6263C184.434 91.2888 184.886 91.0904 185.363 91.0704C186.789 91.0154 188.181 90.6235 189.426 89.9268C190.67 89.2302 191.733 88.2485 192.525 87.0623C193.317 85.876 193.817 84.519 193.984 83.1022C194.151 81.6855 193.98 80.2494 193.485 78.9116C193.32 78.4639 193.33 77.9708 193.513 77.5301C193.695 77.0895 194.036 76.7334 194.469 76.5326C195.766 75.9368 196.903 75.0422 197.787 73.922C198.672 72.8018 199.278 71.4879 199.556 70.0882C199.835 68.6884 199.777 67.2426 199.389 65.8693C199.001 64.496 198.292 63.2342 197.322 62.1875C196.999 61.836 196.819 61.3758 196.819 60.8982C196.819 60.4205 196.999 59.9603 197.322 59.6088C198.292 58.5624 199.001 57.301 199.389 55.9279C199.777 54.5548 199.835 53.1092 199.556 51.7097C199.278 50.3102 198.672 48.9967 197.787 47.8768C196.903 46.7569 195.766 45.8626 194.469 45.2672C194.035 45.0677 193.693 44.712 193.509 44.2711C193.326 43.8301 193.316 43.3364 193.481 42.8883C193.976 41.5504 194.147 40.1144 193.98 38.6976C193.814 37.2809 193.314 35.9238 192.521 34.7376C191.729 33.5514 190.667 32.5697 189.422 31.873C188.177 31.1763 186.785 30.7845 185.36 30.7295C184.882 30.7094 184.43 30.5111 184.092 30.1736C183.754 29.8362 183.555 29.3842 183.534 28.9069C183.48 27.481 183.09 26.088 182.394 24.8422C181.698 23.5965 180.717 22.5334 179.531 21.7402C178.345 20.947 176.987 20.4462 175.57 20.2791C174.153 20.1119 172.716 20.2831 171.378 20.7785C170.931 20.9475 170.436 20.9402 169.994 20.7581C169.551 20.576 169.195 20.2327 168.996 19.7977C168.4 18.5008 167.505 17.3636 166.385 16.4793C165.265 15.595 163.951 14.9888 162.551 14.7104C161.152 14.432 159.706 14.4893 158.332 14.8776C156.959 15.2659 155.697 15.9742 154.651 16.9443C154.3 17.2674 153.84 17.4468 153.363 17.4468C152.886 17.4468 152.426 17.2674 152.076 16.9443C151.029 15.9742 149.768 15.2659 148.395 14.8775C147.022 14.4892 145.576 14.4319 144.176 14.7104C142.777 14.9888 141.463 15.595 140.343 16.4794C139.224 17.3637 138.329 18.5009 137.734 19.7977C137.534 20.233 137.177 20.5767 136.735 20.7593C136.292 20.942 135.796 20.9501 135.348 20.7821C134.01 20.2866 132.573 20.1155 131.156 20.2826C129.739 20.4498 128.382 20.9505 127.196 21.7437C126.009 22.5369 125.028 23.6 124.332 24.8458C123.637 26.0916 123.246 27.4846 123.193 28.9105C123.172 29.3877 122.972 29.8397 122.634 30.1772C122.296 30.5146 121.844 30.713 121.367 30.7331C119.941 30.788 118.549 31.1799 117.304 31.8766C116.059 32.5733 114.997 33.5549 114.205 34.7412C113.413 35.9274 112.912 37.2845 112.746 38.7012C112.579 40.1179 112.75 41.554 113.245 42.8918C113.409 43.3396 113.399 43.8327 113.217 44.2733C113.035 44.714 112.693 45.07 112.261 45.2708C110.964 45.8666 109.827 46.7613 108.942 47.8815C108.058 49.0017 107.452 50.3155 107.174 51.7153C106.895 53.115 106.952 54.5608 107.341 55.9341C107.729 57.3075 108.437 58.5692 109.407 59.6159C109.731 59.9675 109.91 60.4277 109.91 60.9053C109.91 61.3829 109.731 61.8431 109.407 62.1946C108.437 63.241 107.729 64.5025 107.341 65.8756C106.952 67.2486 106.895 68.6942 107.174 70.0937C107.452 71.4932 108.058 72.8068 108.943 73.9267C109.827 75.0466 110.964 75.9409 112.261 76.5362C112.695 76.7357 113.037 77.0914 113.22 77.5324C113.403 77.9733 113.414 78.4671 113.249 78.9152C112.754 80.253 112.582 81.6891 112.749 83.1058C112.916 84.5225 113.416 85.8796 114.208 87.0658C115.001 88.2521 116.063 89.2337 117.308 89.9304C118.552 90.6271 119.945 91.019 121.37 91.0739C122.358 91.1167 123.153 91.9085 123.196 92.8965C123.268 94.6085 123.838 96.2634 124.833 97.6616V157.2H17.8333C14.9955 157.2 12.2739 156.073 10.2673 154.066C8.26065 152.059 7.13333 149.338 7.13333 146.5V18.0999C7.13333 15.2621 8.26065 12.5405 10.2673 10.5339C12.2739 8.52725 14.9955 7.39994 17.8333 7.39994H196.167C199.004 7.39994 201.726 8.52725 203.733 10.5339C205.739 12.5405 206.867 15.2621 206.867 18.0999V146.5Z" fill="#001232"/>
<path d="M31.3138 125.886C33.4142 127.987 36.2629 129.167 39.2334 129.167H107C107.813 129.167 108.593 129.49 109.168 130.065C109.744 130.64 110.067 131.42 110.067 132.233C110.067 133.047 109.744 133.827 109.168 134.402C108.593 134.977 107.813 135.3 107 135.3H39.234C34.6384 135.294 30.2326 133.466 26.9831 130.217C23.7336 126.967 21.9056 122.562 21.9 117.966V46.6336C21.9056 42.0381 23.7336 37.6325 26.9831 34.383C30.2326 31.1335 34.6382 29.3055 39.2337 29.2999H103.433C104.247 29.2999 105.027 29.623 105.602 30.1981C106.177 30.7732 106.5 31.5533 106.5 32.3666C106.5 33.1799 106.177 33.9599 105.602 34.5351C105.027 35.1102 104.247 35.4333 103.433 35.4333H39.2334C36.2629 35.4333 33.4142 36.6133 31.3138 38.7137C29.2134 40.8141 28.0334 43.6628 28.0334 46.6333V117.967C28.0334 120.937 29.2134 123.786 31.3138 125.886Z" fill="#E0852F" stroke="#001232"/>
<path d="M42.8 85.8662H92.7333C93.6792 85.8662 94.5864 85.4905 95.2553 84.8216C95.9242 84.1527 96.3 83.2455 96.3 82.2996C96.3 81.3536 95.9242 80.4464 95.2553 79.7775C94.5864 79.1087 93.6792 78.7329 92.7333 78.7329H42.8C41.854 78.7329 40.9468 79.1087 40.2779 79.7775C39.6091 80.4464 39.2333 81.3536 39.2333 82.2996C39.2333 83.2455 39.6091 84.1527 40.2779 84.8216C40.9468 85.4905 41.854 85.8662 42.8 85.8662ZM42.8 71.5996H92.7333C93.6792 71.5996 94.5864 71.2238 95.2553 70.5549C95.9242 69.886 96.3 68.9788 96.3 68.0329C96.3 67.087 95.9242 66.1798 95.2553 65.5109C94.5864 64.842 93.6792 64.4662 92.7333 64.4662H42.8C41.854 64.4662 40.9468 64.842 40.2779 65.5109C39.6091 66.1798 39.2333 67.087 39.2333 68.0329C39.2333 68.9788 39.6091 69.886 40.2779 70.5549C40.9468 71.2238 41.854 71.5996 42.8 71.5996ZM42.8 57.3329H92.7333C93.6792 57.3329 94.5864 56.9571 95.2553 56.2882C95.9242 55.6194 96.3 54.7122 96.3 53.7662C96.3 52.8203 95.9242 51.9131 95.2553 51.2442C94.5864 50.5753 93.6792 50.1996 92.7333 50.1996H42.8C41.854 50.1996 40.9468 50.5753 40.2779 51.2442C39.6091 51.9131 39.2333 52.8203 39.2333 53.7662C39.2333 54.7122 39.6091 55.6194 40.2779 56.2882C40.9468 56.9571 41.854 57.3329 42.8 57.3329ZM39.5293 119.393C39.7165 119.823 39.9865 120.211 40.324 120.536C40.6614 120.862 41.0596 121.117 41.4958 121.288C41.9321 121.46 42.3978 121.543 42.8664 121.534C43.3349 121.526 43.7971 121.424 44.2266 121.237C47.5286 120.01 50.5633 118.159 53.1647 115.783C54.1304 114.82 54.9748 113.742 55.6792 112.573C57.0417 114.107 58.6395 115.405 60.4193 116.425C62.8981 118.045 65.9833 118.441 68.7903 117.495C69.8674 117.078 70.8411 116.433 71.6436 115.605C73.2593 116.614 75.0355 117.331 76.8973 117.727L79.5937 118.366C85.0971 119.978 90.8144 120.734 96.5496 120.613C97.0168 120.579 97.4728 120.454 97.8916 120.244C98.3103 120.034 98.6836 119.743 98.9901 119.389C99.2966 119.035 99.5304 118.624 99.678 118.179C99.8257 117.735 99.8843 117.265 99.8506 116.798C99.8169 116.331 99.6914 115.875 99.4815 115.456C99.2715 115.037 98.9812 114.664 98.627 114.358C98.2727 114.051 97.8616 113.817 97.4171 113.67C96.9725 113.522 96.5032 113.463 96.036 113.497C91.032 113.561 86.0494 112.866 81.2558 111.429L78.4987 110.776C75.171 110.009 74.315 108.668 73.9619 107.723C73.6612 106.92 73.0815 106.252 72.3288 105.842C71.5761 105.432 70.7008 105.306 69.8632 105.489C69.0256 105.671 68.2816 106.149 67.7676 106.835C67.2535 107.521 67.0038 108.369 67.064 109.224C67.0836 109.539 67.0204 109.852 66.8809 110.135C66.7413 110.417 66.5302 110.658 66.2686 110.833C65.4353 110.939 64.593 110.722 63.9146 110.227C61.0302 108.431 58.8611 105.687 57.78 102.465C57.4831 101.663 56.9076 100.994 56.1585 100.581C55.4094 100.167 54.5366 100.037 53.6994 100.213C52.8622 100.39 52.1163 100.861 51.5978 101.542C51.0793 102.222 50.8227 103.067 50.8749 103.921C50.9046 105.183 50.6749 106.438 50.2001 107.608C49.7252 108.778 49.0153 109.838 48.1143 110.722C46.1338 112.454 43.8477 113.802 41.3733 114.696C40.9436 114.883 40.5551 115.153 40.2299 115.49C39.9046 115.828 39.6491 116.226 39.4779 116.662C39.3066 117.098 39.223 117.564 39.2318 118.033C39.2407 118.501 39.3418 118.963 39.5293 119.393ZM153.367 89.4329C159.01 89.4329 164.527 87.7594 169.219 84.6242C173.911 81.4889 177.568 77.0326 179.728 71.8188C181.888 66.605 182.453 60.8679 181.352 55.333C180.251 49.7981 177.533 44.7139 173.543 40.7234C169.552 36.733 164.468 34.0154 158.933 32.9145C153.398 31.8135 147.661 32.3786 142.447 34.5382C137.234 36.6978 132.777 40.355 129.642 45.0473C126.507 49.7396 124.833 55.2562 124.833 60.8996C124.842 68.4645 127.851 75.7171 133.2 81.0663C138.549 86.4155 145.802 89.4244 153.367 89.4329ZM153.367 39.4996C156.177 39.4996 158.96 40.0531 161.556 41.1285C164.152 42.204 166.512 43.7803 168.499 45.7675C170.486 47.7546 172.062 50.1138 173.138 52.7101C174.213 55.3065 174.767 58.0893 174.767 60.8996C174.767 63.7099 174.213 66.4926 173.138 69.089C172.062 71.6854 170.486 74.0445 168.499 76.0317C166.512 78.0188 164.152 79.5951 161.556 80.6706C158.96 81.746 156.177 82.2996 153.367 82.2996C147.691 82.2996 142.248 80.0449 138.235 76.0317C134.221 72.0184 131.967 66.5752 131.967 60.8996C131.967 55.2239 134.221 49.7808 138.235 45.7675C142.248 41.7542 147.691 39.4996 153.367 39.4996Z" fill="#E19C37"/>
</svg>
