<svg width="66" height="56" viewBox="0 0 66 56" fill="none" xmlns="http://www.w3.org/2000/svg">
<path d="M62.25 55.25H3.75C1.8 55.25 0.5 53.95 0.5 52V3.25C0.5 1.3 1.8 0 3.75 0C5.7 0 7 1.3 7 3.25V48.75H62.25C64.2 48.75 65.5 50.05 65.5 52C65.5 53.95 64.2 55.25 62.25 55.25Z" fill="white"/>
<path d="M3.75 39C2.775 39 1.8 38.675 1.15 37.7C-0.150002 36.4 0.174997 34.125 1.475 33.15L20.975 16.9C22.275 15.925 24.225 15.925 25.2 17.225L35.925 27.95L59.65 7.14997C60.95 5.84997 62.9 6.17497 64.2 7.47497C65.5 8.77497 65.175 10.725 63.875 12.025L37.875 34.775C36.575 35.75 34.625 35.75 33.325 34.775L22.275 23.725L5.05 38.025C5.375 38.675 4.4 39 3.75 39Z" fill="white"/>
</svg>
