<svg width="238" height="182" viewBox="0 0 238 182" fill="none" xmlns="http://www.w3.org/2000/svg">
<path d="M204.795 13.6158H33.2058C27.472 13.6158 22.8077 18.28 22.8077 24.0139V132.14C22.8077 137.444 27.1243 141.76 32.4295 141.76H205.571C211.274 141.221 215.193 137.8 215.193 132.14V24.0139C215.193 18.28 210.528 13.6158 204.795 13.6158ZM33.2058 19.213H204.794C207.441 19.213 209.595 21.3666 209.595 24.0139V100.869L185.469 76.7434C186.058 75.4921 186.412 74.1101 186.412 72.6375C186.412 67.3099 182.077 62.9752 176.75 62.9752C171.406 62.9752 167.059 67.3099 167.059 72.6375C167.059 73.9255 167.323 75.1499 167.78 76.2753L143.9 100.157C142.425 99.2442 140.704 98.6924 138.846 98.6924C136.922 98.6904 135.041 99.2629 133.445 100.337L126.513 93.4048C127.225 92.0549 127.666 90.5405 127.666 88.9098C127.666 83.5822 123.332 79.2475 118.004 79.2475C112.66 79.2475 108.311 83.5822 108.311 88.9098C108.311 90.3987 108.676 91.7941 109.279 93.0562L99.7468 102.588C98.3197 101.757 96.6835 101.244 94.9157 101.244C93.0136 101.244 91.2504 101.813 89.7517 102.76L74.4663 87.4767C75.3318 86.0245 75.8608 84.3473 75.8608 82.5363C75.8608 77.2087 71.5262 72.8759 66.1986 72.8759C60.8547 72.8759 56.5075 77.2087 56.5075 82.5363C56.5075 84.2674 57.0012 85.8706 57.7993 87.2791L28.4049 116.674V24.0139C28.4049 21.3666 30.5585 19.213 33.2058 19.213ZM172.656 72.6375C172.656 70.3965 174.493 68.5724 176.75 68.5724C178.991 68.5724 180.815 70.3965 180.815 72.6375C180.815 73.7159 180.38 74.6828 179.702 75.4144C177.295 78.0264 172.656 76.2916 172.656 72.6375ZM142.91 108.354C142.91 110.604 141.098 112.443 138.853 112.443C136.595 112.443 134.759 110.606 134.759 108.347C134.759 106.322 136.554 104.29 138.846 104.29C141.105 104.289 142.91 106.263 142.91 108.354ZM120.842 91.7886C118.564 94.1778 113.908 92.6499 113.908 88.9098C113.908 86.6688 115.744 84.8447 118.004 84.8447C120.245 84.8447 122.069 86.6688 122.069 88.9098C122.069 90.0068 121.626 90.9932 120.927 91.7291C120.902 91.7537 120.867 91.763 120.842 91.7886ZM90.8214 110.905C90.8214 108.837 92.5975 106.842 94.9152 106.842C97.2343 106.842 98.9673 108.966 98.9673 110.907C98.9673 113.162 97.1465 114.996 94.9087 115C92.6547 114.996 90.8214 113.162 90.8214 110.905ZM65.4497 86.4805C63.2961 86.0654 62.1047 84.305 62.1047 82.5363C62.1047 80.2953 63.9413 78.4731 66.1986 78.4731C68.4396 78.4731 70.2636 80.2953 70.2636 82.5363C70.2636 84.7638 68.209 86.9681 65.4497 86.4805ZM32.4407 136.163C30.4135 136.163 28.4049 134.324 28.4049 132.13V124.588L61.8002 91.1931C64.7752 92.2757 67.224 92.808 70.3599 91.2861L86.0493 106.974C85.7234 107.702 85.2112 109.481 85.2112 110.907C85.2112 116.251 89.5584 120.598 94.9022 120.598L94.9087 120.597L94.9152 120.598C100.243 120.598 104.577 116.249 104.577 110.905C104.577 109.482 104.186 107.878 103.592 106.658L113.03 97.2203C114.256 97.9529 116.322 98.6032 118.004 98.6032C119.606 98.6032 121.096 98.1723 122.428 97.4764C122.484 97.4476 122.548 97.4401 122.602 97.4099L129.883 104.691C129.54 105.515 129.152 107.039 129.152 108.355C129.152 113.699 133.501 118.048 138.845 118.048C144.192 118.048 148.515 113.67 148.515 108.347C148.515 107.972 148.372 105.938 147.638 104.333L171.31 80.6639C171.687 80.8048 176.489 84.1609 181.751 80.941L209.475 108.664V132.735C208.987 135.885 206.355 135.903 205.559 136.164H32.4407V136.163Z" fill="#E19C37"/>
<path d="M46.3991 37.149H120.31C121.052 37.1489 121.764 36.8541 122.289 36.3293C122.814 35.8045 123.109 35.0928 123.109 34.3507C123.109 33.6085 122.814 32.8968 122.289 32.372C121.764 31.8473 121.052 31.5524 120.31 31.5523H46.3991C44.8539 31.5523 43.6007 32.806 43.6007 34.3507C43.6007 35.8953 44.8539 37.149 46.3991 37.149ZM46.3991 55.5345H100.554C101.296 55.5343 102.008 55.2394 102.533 54.7146C103.058 54.1899 103.352 53.4783 103.353 52.7362C103.352 51.9941 103.058 51.2824 102.533 50.7577C102.008 50.233 101.296 49.938 100.554 49.9378H46.3991C45.6657 49.9512 44.9669 50.2519 44.4531 50.7752C43.9392 51.2986 43.6513 52.0027 43.6513 52.7362C43.6513 53.4696 43.9392 54.1738 44.4531 54.6971C44.9669 55.2205 45.6657 55.5212 46.3991 55.5345Z" fill="#001232"/>
<path d="M27.452 181.93H210.548C225.396 181.93 237.474 169.852 237.474 155.005C237.474 152.086 235.098 149.71 232.179 149.71H228.739V17.1905C228.739 7.74902 221.059 0.0693359 211.618 0.0693359H26.3829C16.9414 0.0693359 9.26176 7.74902 9.26176 17.1905V149.71H5.82191C2.90316 149.71 0.527344 152.085 0.527344 155.004C0.526879 169.852 12.6049 181.93 27.452 181.93ZM14.8585 17.1905C14.8585 10.8351 20.0275 5.66652 26.3824 5.66652H211.618C217.973 5.66652 223.141 10.8356 223.141 17.1905V149.71H14.8585V17.1905ZM231.874 155.307C231.712 166.928 222.207 176.333 210.548 176.333H119H27.452C15.7933 176.333 6.28769 166.928 6.12546 155.307H231.874Z" fill="#001232"/>
<path d="M94.9097 168.618H143.091C144.636 168.618 145.889 167.365 145.889 165.82C145.889 164.275 144.635 163.022 143.091 163.022H94.9097C93.3645 163.022 92.1113 164.275 92.1113 165.82C92.1113 167.365 93.3645 168.618 94.9097 168.618Z" fill="black"/>
</svg>
