<svg width="77" height="77" viewBox="0 0 77 77" fill="none" xmlns="http://www.w3.org/2000/svg">
<path d="M51.2001 40.0053L35.2113 51.628C34.924 51.8374 34.5844 51.9632 34.2301 51.9916C33.8758 52.02 33.5205 51.9499 33.2035 51.7889C32.8866 51.6279 32.6204 51.3824 32.4343 51.0795C32.2483 50.7766 32.1496 50.4281 32.1493 50.0726V26.8351C32.1482 26.479 32.2461 26.1297 32.4319 25.826C32.6178 25.5223 32.8843 25.2763 33.2019 25.1152C33.5194 24.9542 33.8754 24.8846 34.2302 24.9141C34.585 24.9436 34.9247 25.071 35.2113 25.2823L51.2001 36.8947C51.4471 37.0719 51.6484 37.3054 51.7873 37.5759C51.9261 37.8463 51.9985 38.146 51.9985 38.45C51.9985 38.754 51.9261 39.0537 51.7873 39.3242C51.6484 39.5946 51.4471 39.8281 51.2001 40.0053Z" fill="white"/>
<path d="M38.5013 76.9949C17.2341 76.9949 0 59.7608 0 38.4936C0 17.2341 17.2341 0.00512695 38.5013 0.00512695C59.7633 0.00512695 77 17.2367 77 38.4936C77.0026 59.7608 59.7633 76.9949 38.5013 76.9949ZM38.5013 6.42884C20.7906 6.42884 6.4314 20.7803 6.4314 38.4936C6.4314 56.1992 20.7906 70.5686 38.5013 70.5686C56.2094 70.5686 70.566 56.2017 70.566 38.4936C70.5686 20.7803 56.2094 6.42884 38.5013 6.42884Z" fill="white"/>
</svg>
