<svg width="244" height="244" viewBox="0 0 244 244" fill="none" xmlns="http://www.w3.org/2000/svg">
<path d="M204.516 121.952C204.516 124.63 203.439 127.054 201.68 128.813C199.922 130.572 197.497 131.649 194.82 131.649H193.742C194.139 128.464 194.344 125.232 194.344 121.937C194.344 118.641 194.139 115.409 193.742 112.224H194.82C200.159 112.24 204.516 116.581 204.516 121.952Z" fill="#D4F3F6"/>
<path d="M193.726 131.665C191.619 148.571 184.046 163.797 172.844 175.49C167.996 180.544 165.381 187.325 165.381 194.313V212.09H152.754V196.879H152.738V196.848H81.1221V196.879H81.0746V212.09H68.4468V194.313C68.4468 187.31 65.8325 180.528 60.9842 175.49C47.6592 161.595 39.4836 142.724 39.4836 121.952C39.4836 101.181 47.6751 82.3262 60.9842 68.4151C65.8325 63.3608 68.4468 56.5795 68.4468 49.5764V31.7992H81.0587V47.1522H152.738V31.7992H165.365V49.5922C165.365 56.5953 167.98 63.3608 172.812 68.4151C184.03 80.1239 191.588 95.3343 193.711 112.24C194.107 115.425 194.313 118.657 194.313 121.952C194.329 125.232 194.123 128.48 193.726 131.665ZM172.543 121.952C172.543 106.584 166.316 92.6883 156.255 82.6114C146.194 72.5504 132.283 66.3236 116.914 66.3236C101.545 66.3236 87.6499 72.5504 77.573 82.6114C67.512 92.6725 61.2852 106.584 61.2852 121.952C61.2852 137.305 67.512 151.217 77.573 161.294C87.634 171.355 101.545 177.581 116.914 177.581C132.283 177.581 146.178 171.355 156.255 161.294C166.316 151.217 172.543 137.305 172.543 121.952Z" fill="#E19C37"/>
<path d="M116.914 116.264C113.777 116.264 111.226 118.815 111.226 121.952C111.226 125.09 113.777 127.641 116.914 127.641C120.051 127.641 122.602 125.09 122.602 121.952C122.602 118.815 120.051 116.264 116.914 116.264ZM156.239 82.6114C166.3 92.6725 172.527 106.584 172.527 121.937C172.527 137.29 166.3 151.201 156.239 161.262C146.178 171.323 132.267 177.55 116.914 177.55C101.561 177.55 87.6499 171.323 77.5888 161.262C67.5278 151.201 61.301 137.29 61.301 121.937C61.301 106.584 67.5278 92.6725 77.5888 82.6114C87.6499 72.5504 101.561 66.3236 116.914 66.3236C132.267 66.3236 146.178 72.5504 156.239 82.6114Z" fill="#F8F6F7"/>
<path d="M81.1221 196.879H152.738V239.881H81.1221V196.879ZM81.1221 4.11948H152.738V47.1522H81.1221V4.11948Z" fill="white"/>
<path d="M116.914 116.264C120.051 116.264 122.602 118.815 122.602 121.952C122.602 125.09 120.051 127.641 116.914 127.641C113.777 127.641 111.226 125.09 111.226 121.952C111.226 118.815 113.777 116.264 116.914 116.264Z" fill="#FFE25B"/>
<path d="M194.804 134.992H193.726C191.889 134.992 190.399 133.503 190.399 131.665C190.399 129.827 191.889 128.338 193.726 128.338H194.804C196.515 128.338 198.115 127.672 199.319 126.468C200.524 125.264 201.189 123.664 201.189 121.952C201.189 118.435 198.321 115.567 194.804 115.567H193.726C191.889 115.567 190.399 114.078 190.399 112.24C190.399 110.402 191.889 108.913 193.726 108.913H194.804C201.997 108.913 207.844 114.759 207.844 121.952C207.844 125.438 206.481 128.718 204.025 131.174C201.553 133.63 198.29 134.992 194.804 134.992Z" fill="#001232"/>
<path d="M165.381 215.417H152.754C150.916 215.417 149.426 213.928 149.426 212.09V200.207H84.4018V212.09C84.4018 213.928 82.9125 215.417 81.0746 215.417H68.4468C66.6088 215.417 65.1195 213.928 65.1195 212.09V194.313C65.1195 188.054 62.7904 182.176 58.5759 177.787C44.1101 162.688 36.1564 142.867 36.1564 121.952C36.1564 101.038 44.126 81.2171 58.5759 66.1177C62.7904 61.713 65.1195 55.8507 65.1195 49.5922V31.7992C65.1195 29.9613 66.6088 28.472 68.4468 28.472H81.0587C82.8966 28.472 84.386 29.9613 84.386 31.7992V43.8249H149.41V31.7992C149.41 29.9613 150.9 28.472 152.738 28.472H165.365C167.203 28.472 168.693 29.9613 168.693 31.7992V49.5922C168.693 55.8507 171.006 61.713 175.221 66.1177C189.686 81.2171 197.64 101.038 197.64 121.952C197.64 142.867 189.686 162.704 175.221 177.787C171.006 182.192 168.693 188.054 168.693 194.313V212.09C168.709 213.928 167.219 215.417 165.381 215.417ZM156.081 208.763H162.054V194.313C162.054 186.327 165.033 178.817 170.436 173.177C183.697 159.329 191.001 141.14 191.001 121.937C191.001 102.749 183.697 84.5603 170.436 70.6966C165.033 65.0561 162.054 57.546 162.054 49.5764V35.1107H156.081V47.1364C156.081 48.9743 154.591 50.4636 152.754 50.4636H81.0746C79.2366 50.4636 77.7473 48.9743 77.7473 47.1364V35.1107H71.774V49.5605C71.774 57.546 68.7953 65.0561 63.3925 70.6966C50.1151 84.5444 42.8109 102.734 42.8109 121.937C42.8109 141.124 50.1151 159.313 63.3925 173.177C68.7953 178.817 71.774 186.327 71.774 194.313V208.763H77.7314V196.879C77.7314 195.042 79.2208 193.552 81.0587 193.552H152.738C154.576 193.552 156.065 195.042 156.065 196.879L156.081 208.763Z" fill="#001232"/>
<path d="M116.914 180.893C108.96 180.893 101.244 179.34 93.9717 176.266C86.9527 173.303 80.6467 169.041 75.228 163.638C69.8093 158.22 65.5631 151.914 62.6003 144.895C59.5265 137.622 57.9738 129.906 57.9738 121.952C57.9738 113.999 59.5265 106.283 62.6003 99.0101C65.5631 91.9912 69.8252 85.6852 75.228 80.2665C80.6467 74.8478 86.9527 70.6016 93.9717 67.6387C101.244 64.5649 108.96 63.0122 116.914 63.0122C124.868 63.0122 132.584 64.5649 139.856 67.6387C146.875 70.6016 153.181 74.8636 158.6 80.2665C164.019 85.6852 168.265 91.9912 171.228 99.0101C174.302 106.283 175.854 113.999 175.854 121.952C175.854 129.906 174.302 137.622 171.228 144.895C168.265 151.914 164.003 158.22 158.6 163.638C153.181 169.057 146.875 173.303 139.856 176.266C132.584 179.34 124.868 180.893 116.914 180.893ZM116.914 69.6509C88.0777 69.6509 64.6125 93.1161 64.6125 121.952C64.6125 150.789 88.0777 174.254 116.914 174.254C145.75 174.254 169.216 150.789 169.216 121.952C169.216 93.1161 145.75 69.6509 116.914 69.6509Z" fill="#001232"/>
<path d="M137.638 146.004C136.783 146.004 135.943 145.687 135.293 145.022L118.641 128.369C117.342 127.07 117.342 124.963 118.641 123.664C119.94 122.364 122.048 122.364 123.347 123.664L139.999 140.316C141.298 141.615 141.298 143.722 139.999 145.022C139.349 145.687 138.494 146.004 137.638 146.004Z" fill="#001232"/>
<path d="M116.914 180.909C108.96 180.909 101.228 179.356 93.9717 176.282C86.9527 173.319 80.6467 169.057 75.228 163.654C69.8093 158.236 65.5631 151.93 62.6003 144.911C59.5265 137.638 57.9738 129.922 57.9738 121.968C57.9738 114.015 59.5265 106.283 62.6003 99.026C65.5631 92.007 69.8252 85.701 75.228 80.2823C80.6467 74.8636 86.9527 70.6174 93.9717 67.6545C101.244 64.5808 108.96 63.028 116.914 63.028C124.868 63.028 132.6 64.5808 139.856 67.6545C146.875 70.6174 153.181 74.8795 158.6 80.2823C164.019 85.701 168.265 92.007 171.228 99.026C174.302 106.298 175.854 114.015 175.854 121.968C175.854 129.922 174.302 137.654 171.228 144.911C168.265 151.93 164.003 158.236 158.6 163.654C153.197 169.073 146.875 173.319 139.856 176.282C132.584 179.34 124.868 180.909 116.914 180.909ZM116.914 69.6509C88.0777 69.6509 64.6125 93.1161 64.6125 121.952C64.6125 150.789 88.0777 174.254 116.914 174.254C145.75 174.254 169.216 150.789 169.216 121.952C169.216 93.1161 145.75 69.6509 116.914 69.6509Z" fill="#001232"/>
<path d="M116.914 130.968C111.939 130.968 107.899 126.928 107.899 121.952C107.899 116.977 111.939 112.937 116.914 112.937C121.889 112.937 125.929 116.977 125.929 121.952C125.929 126.928 121.873 130.968 116.914 130.968ZM116.914 119.592C115.615 119.592 114.553 120.653 114.553 121.952C114.553 123.252 115.615 124.313 116.914 124.313C118.213 124.313 119.275 123.252 119.275 121.952C119.275 120.653 118.213 119.592 116.914 119.592Z" fill="#001232"/>
<path d="M116.914 119.639C115.076 119.639 113.587 118.15 113.587 116.312V94.7956C113.587 92.9577 115.076 91.4683 116.914 91.4683C118.752 91.4683 120.241 92.9577 120.241 94.7956V116.312C120.241 118.15 118.752 119.639 116.914 119.639ZM116.914 78.0958C115.076 78.0958 113.587 76.6065 113.587 74.7686V66.3236C113.587 64.4857 115.076 62.9964 116.914 62.9964C118.752 62.9964 120.241 64.4857 120.241 66.3236V74.7686C120.241 76.6065 118.752 78.0958 116.914 78.0958ZM83.5462 91.9119C82.6906 91.9119 81.8509 91.5951 81.2013 90.9296L75.228 84.9564C73.9288 83.6571 73.9288 81.5499 75.228 80.2506C76.5272 78.9514 78.6345 78.9514 79.9337 80.2506L85.907 86.2239C87.2062 87.5231 87.2062 89.6304 85.907 90.9296C85.2574 91.5951 84.4018 91.9119 83.5462 91.9119ZM69.7301 125.28H61.2852C59.4472 125.28 57.9579 123.79 57.9579 121.952C57.9579 120.115 59.4472 118.625 61.2852 118.625H69.7301C71.568 118.625 73.0574 120.115 73.0574 121.952C73.0574 123.79 71.568 125.28 69.7301 125.28ZM77.573 164.605C76.7174 164.605 75.8776 164.288 75.228 163.623C73.9288 162.323 73.9288 160.216 75.228 158.917L81.2013 152.944C82.5005 151.644 84.6078 151.644 85.907 152.944C87.2062 154.243 87.2062 156.35 85.907 157.649L79.9337 163.623C79.2841 164.288 78.4285 164.605 77.573 164.605ZM116.914 180.909C115.076 180.909 113.587 179.419 113.587 177.581V169.136C113.587 167.298 115.076 165.809 116.914 165.809C118.752 165.809 120.241 167.298 120.241 169.136V177.581C120.241 179.419 118.752 180.909 116.914 180.909ZM156.239 164.605C155.384 164.605 154.544 164.288 153.894 163.623L147.921 157.649C146.622 156.35 146.622 154.243 147.921 152.944C149.22 151.644 151.327 151.644 152.627 152.944L158.6 158.917C159.899 160.216 159.899 162.323 158.6 163.623C157.95 164.288 157.095 164.605 156.239 164.605ZM172.543 125.28H164.098C162.26 125.28 160.771 123.79 160.771 121.952C160.771 120.115 162.26 118.625 164.098 118.625H172.543C174.381 118.625 175.87 120.115 175.87 121.952C175.87 123.79 174.381 125.28 172.543 125.28ZM150.266 91.9119C149.41 91.9119 148.571 91.5792 147.921 90.9296C146.622 89.6304 146.622 87.5231 147.921 86.2239L153.894 80.2506C155.193 78.9514 157.301 78.9514 158.6 80.2506C159.899 81.5499 159.899 83.6571 158.6 84.9564L152.627 90.9296C151.977 91.5951 151.122 91.9119 150.266 91.9119ZM152.738 50.4795H81.122C79.2841 50.4795 77.7948 48.9901 77.7948 47.1522V4.11948C77.7948 2.28156 79.2841 0.792206 81.122 0.792206H152.738C154.576 0.792206 156.065 2.28156 156.065 4.11948V47.1522C156.065 48.9901 154.576 50.4795 152.738 50.4795ZM84.4493 43.8249H149.41V7.44675H84.4493V43.8249ZM152.738 243.208H81.122C79.2841 243.208 77.7948 241.718 77.7948 239.881V196.848C77.7948 195.01 79.2841 193.521 81.122 193.521H152.738C154.576 193.521 156.065 195.01 156.065 196.848V239.881C156.065 241.718 154.576 243.208 152.738 243.208ZM84.4493 236.553H149.41V200.175H84.4493V236.553Z" fill="#001232"/>
</svg>
